<svg width="336" height="22" viewBox="0 0 336 22" fill="none" xmlns="http://www.w3.org/2000/svg">
<path d="M320.967 15.1667L324.417 12.1667L327.867 15.1667L329.208 14L325.758 11L329.208 7.99999L327.867 6.83332L324.417 9.83332L320.967 6.83332L319.625 7.99999L323.075 11L319.625 14L320.967 15.1667ZM324.417 19.3333C323.091 19.3333 321.845 19.1146 320.679 18.6771C319.513 18.2396 318.499 17.6458 317.636 16.8958C316.774 16.1458 316.091 15.2639 315.588 14.25C315.085 13.2361 314.833 12.1528 314.833 11C314.833 9.84721 315.085 8.76388 315.588 7.74999C316.091 6.7361 316.774 5.85416 317.636 5.10416C318.499 4.35416 319.513 3.76041 320.679 3.32291C321.845 2.88541 323.091 2.66666 324.417 2.66666C325.742 2.66666 326.988 2.88541 328.154 3.32291C329.32 3.76041 330.334 4.35416 331.197 5.10416C332.059 5.85416 332.742 6.7361 333.245 7.74999C333.748 8.76388 334 9.84721 334 11C334 12.1528 333.748 13.2361 333.245 14.25C332.742 15.2639 332.059 16.1458 331.197 16.8958C330.334 17.6458 329.32 18.2396 328.154 18.6771C326.988 19.1146 325.742 19.3333 324.417 19.3333ZM324.417 17.6667C326.557 17.6667 328.37 17.0208 329.855 15.7292C331.341 14.4375 332.083 12.8611 332.083 11C332.083 9.13888 331.341 7.56249 329.855 6.27082C328.37 4.97916 326.557 4.33332 324.417 4.33332C322.276 4.33332 320.464 4.97916 318.978 6.27082C317.493 7.56249 316.75 9.13888 316.75 11C316.75 12.8611 317.493 14.4375 318.978 15.7292C320.464 17.0208 322.276 17.6667 324.417 17.6667Z" fill="#1D1B20"/>
</svg>
