<svg width="24" height="18" viewBox="0 0 24 18" fill="none" xmlns="http://www.w3.org/2000/svg">
<g clip-path="url(#clip0_3_6965)">
<path d="M17.94 13.455C16.2306 14.4323 14.1491 14.9736 12 15C5 15 1 9 1 9C2.24389 7.26142 3.96914 5.74246 6.06 4.545M9.9 3.18C10.5883 3.05916 11.2931 2.99875 12 3C19 3 23 9 23 9C22.393 9.85171 21.6691 10.6536 20.84 11.3925M14.12 10.59C13.8454 10.8111 13.5141 10.9884 13.1462 11.1113C12.7782 11.2343 12.3809 11.3004 11.9781 11.3058C11.5753 11.3111 11.1752 11.2555 10.8016 11.1424C10.4281 11.0292 10.0887 10.8608 9.80385 10.6471C9.51897 10.4335 9.29439 10.179 9.14351 9.89879C8.99262 9.61863 8.91853 9.31854 8.92563 9.01643C8.93274 8.71432 9.02091 8.41638 9.18488 8.14039C9.34884 7.86439 9.58525 7.61599 9.88 7.41M1 0.75L23 17.25" stroke="#1E1E1E" stroke-width="4" stroke-linecap="round" stroke-linejoin="round"/>
</g>
<defs>
<clipPath id="clip0_3_6965">
<rect width="24" height="18" fill="white"/>
</clipPath>
</defs>
</svg>
